<svg width="32px" height="32px" xmlns="http://www.w3.org/2000/svg" viewBox="0 0 272 272"><defs><style>.cls-1{fill:#ffeb3c}.cls-2{fill:#f3f4f2}.cls-3{fill:#f54337}.cls-4{fill:#64b5f6}</style></defs><rect width="128" height="128" x="76" y="8" class="cls-1" rx="16" ry="16"/><rect width="96" height="96" x="92" y="24" class="cls-2" rx="8" ry="8" transform="rotate(90 140 72)"/><rect width="128" height="128" x="136" y="136" class="cls-3" rx="16" ry="16"/><rect width="96" height="96" x="152" y="152" class="cls-2" rx="8" ry="8" transform="rotate(90 200 200)"/><rect width="128" height="128" x="8" y="136" class="cls-4" rx="16" ry="16"/><rect width="96" height="96" x="24" y="152" class="cls-2" rx="8" ry="8" transform="rotate(90 72 200)"/><path d="M148.2 100.6h-14.5q-7 0-7-4.4 0-5 7.8-5h1.6V58.9Q132.9 61 132 61a5 5 0 0 1-3.6-1.5 4.6 4.6 0 0 1-1.5-3.4q0-2 2.5-4.1l4.1-3 4.5-3.6a9.2 9.2 0 0 1 5.3-2q3.3 0 3.3 4 0 4.4-.4 12.3t-.4 22.6V91h2.4a5 5 0 0 1 3.6 1.4 4.7 4.7 0 0 1 0 6.7 5 5 0 0 1-3.6 1.4Z" class="cls-1"/><path d="M85.7 228.1a19.7 19.7 0 0 1-2.8-.3 19.8 19.8 0 0 0-2.8-.3H69.4a38 38 0 0 0-4.3.4 37.8 37.8 0 0 1-4.2.3 6.8 6.8 0 0 1-1.2-.1 7 7 0 0 0-1.1-.2 4.4 4.4 0 0 1-4.5-2.7 13.8 13.8 0 0 1-.7-5.2 20.4 20.4 0 0 1 3-11.4 27.3 27.3 0 0 1 7.5-7.1l10-6.5q5.7-4.2 5.7-9.6 0-1.4-2.3-2.7a8.8 8.8 0 0 0-4.5-1.4q-3.9 0-8.2 3.5t-6 3.4a6.1 6.1 0 0 1-3.4-1 3.7 3.7 0 0 1-1.8-3.2 5 5 0 0 1 1.8-3.9 44.3 44.3 0 0 1 7.8-5.7 20.6 20.6 0 0 1 21.3.7q5.8 3.9 5.8 10a18.9 18.9 0 0 1-2.9 10.6 24.9 24.9 0 0 1-7 6.8l-9.2 5.7q-7 4.6-7.5 10.4l6-.6q7.7-.4 11.1-.4a15.3 15.3 0 0 1 6.2 1.4q3.8 1.7 3.8 4.3a5 5 0 0 1-4.9 4.9Z" class="cls-4"/><path d="M211 197.4q7.6 4.2 7.6 13.5a16.7 16.7 0 0 1-5.5 12.7 18.9 18.9 0 0 1-13.4 5.2 23.3 23.3 0 0 1-10.7-2.4 14.4 14.4 0 0 1-7.4-8 4.6 4.6 0 0 1-.3-1.6 4.2 4.2 0 0 1 1.7-3.4 5.4 5.4 0 0 1 3.5-1.2 4.4 4.4 0 0 1 3.7 1.8 38 38 0 0 0 2.7 3.5q2.3 1.8 6.7 1.8a9.5 9.5 0 0 0 6.1-2.1 6.2 6.2 0 0 0 2.7-5q0-9.1-12.3-10.3-5.4-.5-5.4-4.5 0-3 4.2-4.5 4-.8 7.8-1.8a9 9 0 0 0 3.8-2 4.2 4.2 0 0 0 1.3-3q.1-5.4-8.6-5.4a11.8 11.8 0 0 0-6.2 2.2q-3.4 2.1-4.7 2.1a5 5 0 0 1-5-4.9q0-3 6.2-6.1 5.5-2.8 9-2.8 8.2 0 13.3 3.6 5.5 4 5.5 11.3a14.1 14.1 0 0 1-1.6 6.8 11 11 0 0 1-4.6 4.5Z" class="cls-3"/></svg>